<svg xmlns="http://www.w3.org/2000/svg" aria-hidden="true" style="width:0;height:0;position:absolute;overflow:hidden"><defs><symbol id="icon-instagram" viewBox="0 0 32 32"><path d="M9.953 1.421c1.564-.072 2.063-.088 6.047-.088s4.483.017 6.045.088c1.563.071 2.629.32 3.563.681a7.218 7.218 0 0 1 2.597 1.693 7.158 7.158 0 0 1 1.691 2.596c.363.933.611 2 .683 3.56.072 1.567.088 2.065.088 6.048 0 3.984-.017 4.483-.088 6.047-.071 1.56-.32 2.627-.683 3.56a7.19 7.19 0 0 1-1.691 2.599 7.187 7.187 0 0 1-2.597 1.691c-.933.363-2 .611-3.56.683-1.565.072-2.064.088-6.048.088s-4.483-.017-6.047-.088c-1.56-.071-2.627-.32-3.56-.683a7.19 7.19 0 0 1-2.599-1.691 7.185 7.185 0 0 1-1.692-2.597c-.361-.933-.609-2-.681-3.56-.072-1.567-.088-2.065-.088-6.048 0-3.984.017-4.483.088-6.045s.32-2.629.681-3.563a7.192 7.192 0 0 1 1.693-2.597 7.195 7.195 0 0 1 2.596-1.692c.933-.361 2-.609 3.56-.681h.001zm11.974 2.64C20.38 3.99 19.916 3.976 16 3.976s-4.38.015-5.927.085c-1.431.065-2.207.304-2.724.505a4.57 4.57 0 0 0-1.687 1.096 4.543 4.543 0 0 0-1.096 1.687c-.201.517-.44 1.293-.505 2.724-.071 1.547-.085 2.011-.085 5.927s.015 4.38.085 5.927c.065 1.431.304 2.207.505 2.724a4.56 4.56 0 0 0 1.096 1.687 4.551 4.551 0 0 0 1.687 1.096c.517.201 1.293.44 2.724.505 1.547.071 2.009.085 5.927.085s4.38-.015 5.927-.085c1.431-.065 2.207-.304 2.724-.505a4.57 4.57 0 0 0 1.687-1.096 4.551 4.551 0 0 0 1.096-1.687c.201-.517.44-1.293.505-2.724.071-1.547.085-2.011.085-5.927s-.015-4.38-.085-5.927c-.065-1.431-.304-2.207-.505-2.724a4.57 4.57 0 0 0-1.096-1.687 4.543 4.543 0 0 0-1.687-1.096c-.517-.201-1.293-.44-2.724-.505zm-7.8 16.46a4.895 4.895 0 0 0 6.749-5 4.891 4.891 0 0 0-1.415-2.981 4.887 4.887 0 0 0-3.94-1.408 4.897 4.897 0 0 0-4.204 6.289 4.898 4.898 0 0 0 2.808 3.101zm-3.458-9.852a7.538 7.538 0 1 1 10.66 10.661 7.538 7.538 0 0 1-10.66-10.661zm14.542-1.085a1.785 1.785 0 0 0-.553-2.948 1.772 1.772 0 0 0-1.967.428 1.781 1.781 0 0 0 1.271 3.006c.464.007.912-.167 1.249-.486z"/></symbol><symbol id="icon-arrow-left" viewBox="0 0 32 32"><path d="M31.083 15H5.005l6-6-1.414-1.414L1.177 16l8.414 8.414L11.005 23l-6-6h26.078v-2z"/></symbol><symbol id="icon-arrow-right" viewBox="0 0 32 32"><path d="M22.492 7.586 21.078 9l6 6H1v2h26.078l-6 6 1.414 1.414L30.906 16l-8.414-8.414z"/></symbol><symbol id="icon-location-pin" viewBox="0 0 32 32"><path d="M16 3.215c-4.419 0-8 3.566-8 7.984 0 7.638 8 17.6 8 17.6s8-9.963 8-17.6c0-4.416-3.581-7.984-8-7.984zm0 12.401a4.32 4.32 0 1 1 0-8.64 4.32 4.32 0 0 1 0 8.64z"/></symbol><symbol id="icon-phone" viewBox="0 0 32 32"><path d="M21 2.667a3.004 3.004 0 0 1 3 3v20.667a3.004 3.004 0 0 1-3 3H11a3.004 3.004 0 0 1-3-3V5.667a3.004 3.004 0 0 1 3-3h10zm0 2H11a.997.997 0 0 0-1 1v20.667a1 1 0 0 0 1 1h10a.997.997 0 0 0 1-1V5.667a.997.997 0 0 0-1-1zm-3.335 18.666a1 1 0 0 1 .002 2l-3.333.005a1 1 0 0 1-.002-2l3.333-.005z"/></symbol><symbol id="icon-facebook" viewBox="0 0 32 32"><path d="M14.26 11.916v1.836h-1.344v2.244h1.344v6.671h2.763v-6.671h1.853s.175-1.076.259-2.253h-2.101V12.21c0-.231.301-.539.6-.539h1.504V9.334h-2.047c-2.899 0-2.831 2.247-2.831 2.583z"/><path d="M8 5.333A2.668 2.668 0 0 0 5.333 8v16A2.67 2.67 0 0 0 8 26.667h16A2.67 2.67 0 0 0 26.667 24V8A2.668 2.668 0 0 0 24 5.333H8zm0-2.666h16A5.332 5.332 0 0 1 29.333 8v16A5.332 5.332 0 0 1 24 29.333H8A5.332 5.332 0 0 1 2.667 24V8A5.332 5.332 0 0 1 8 2.667z"/></symbol><symbol id="icon-telegram" viewBox="0 0 32 32"><path d="M26.07 3.996a2.974 2.974 0 0 0-.933.223h-.004c-.285.113-1.64.683-3.7 1.547l-7.382 3.109c-5.297 2.23-10.504 4.426-10.504 4.426l.062-.024s-.359.118-.734.375c-.232.147-.431.34-.586.567-.184.27-.332.683-.277 1.11.09.722.558 1.155.894 1.394.34.242.664.355.664.355h.008l4.883 1.645c.219.703 1.488 4.875 1.793 5.836.18.574.355.933.574 1.207.106.14.23.257.379.351.077.045.16.081.246.106l-.05-.012c.015.004.027.016.038.02.04.011.067.015.118.023.773.234 1.394-.246 1.394-.246l.035-.028 2.883-2.625 4.832 3.707.11.047c1.007.442 2.027.196 2.566-.238.543-.437.754-.996.754-.996l.035-.09 3.734-19.129c.106-.472.133-.914.016-1.343a1.807 1.807 0 0 0-.781-1.047 1.87 1.87 0 0 0-1.067-.27zm-.101 2.05c-.004.063.008.056-.02.177v.011l-3.699 18.93c-.016.027-.043.086-.117.145-.078.062-.14.101-.465-.028l-5.91-4.531-3.57 3.254.75-4.79 9.656-9c.398-.37.265-.448.265-.448.028-.454-.601-.133-.601-.133l-12.176 7.543-.004-.02-5.851-1.972a.188.188 0 0 0 .03-.012l.032-.016.031-.011s5.211-2.196 10.508-4.426c2.652-1.117 5.324-2.242 7.379-3.11a831.676 831.676 0 0 1 3.66-1.53c.082-.032.043-.032.102-.032v-.001z"/></symbol><symbol id="icon-location" viewBox="0 0 19 32"><path d="M9.6.656h-.016A9.584 9.584 0 0 0 0 10.24c0 9.166 9.6 21.12 9.6 21.12s9.6-11.957 9.6-21.12A9.584 9.584 0 0 0 9.616.656h-.017.001zm0 14.883a5.184 5.184 0 0 1 0-10.368 5.184 5.184 0 0 1 0 10.368z"/></symbol><symbol id="icon-facebook" viewBox="0 0 32 32"><path d="M13.912 11.099v2.203h-1.613v2.693h1.613V24h3.315v-8.005h2.224s.21-1.291.31-2.704h-2.522v-1.84c0-.277.362-.646.72-.646h1.805V8h-2.456c-3.478 0-3.397 2.696-3.397 3.099z"/><path d="M6.4 3.2a3.2 3.2 0 0 0-3.2 3.2v19.2a3.2 3.2 0 0 0 3.2 3.2h19.2a3.2 3.2 0 0 0 3.2-3.2V6.4a3.2 3.2 0 0 0-3.2-3.2H6.4zm0-3.2h19.2A6.4 6.4 0 0 1 32 6.4v19.2a6.4 6.4 0 0 1-6.4 6.4H6.4A6.4 6.4 0 0 1 0 25.6V6.4A6.4 6.4 0 0 1 6.4 0z"/></symbol><symbol id="icon-instagram" viewBox="0 0 32 32"><path d="M9.404.096C11.11.017 11.654 0 16 0s4.89.019 6.595.096 2.868.349 3.887.743a7.88 7.88 0 0 1 2.833 1.847 7.803 7.803 0 0 1 1.844 2.832c.396 1.018.666 2.182.745 3.884.079 1.709.096 2.253.096 6.598 0 4.346-.019 4.89-.096 6.596-.077 1.702-.349 2.865-.745 3.884a7.889 7.889 0 0 1-1.843 2.834l-.001.001a7.832 7.832 0 0 1-2.833 1.844c-1.018.396-2.182.666-3.884.745C20.89 31.983 20.346 32 16 32s-4.89-.019-6.596-.096c-1.702-.077-2.865-.349-3.884-.745a7.889 7.889 0 0 1-2.834-1.843l-.001-.001a7.857 7.857 0 0 1-1.828-2.78l-.018-.054c-.394-1.018-.665-2.182-.743-3.884C.017 20.888 0 20.344 0 15.999c0-4.346.019-4.89.096-6.595s.349-2.868.743-3.887a7.879 7.879 0 0 1 1.846-2.832l.001-.001A7.872 7.872 0 0 1 5.464.856l.054-.018C6.536.444 7.7.173 9.402.095h.001zm13.061 2.88c-1.687-.077-2.193-.093-6.465-.093s-4.778.016-6.465.093c-1.561.071-2.407.332-2.972.551a4.972 4.972 0 0 0-1.84 1.196 4.964 4.964 0 0 0-1.184 1.806l-.011.034c-.22.564-.48 1.411-.551 2.972-.077 1.687-.093 2.193-.093 6.465s.016 4.778.093 6.465c.071 1.561.332 2.407.551 2.972a4.962 4.962 0 0 0 1.196 1.84c.516.531 1.146.94 1.84 1.196.564.22 1.411.48 2.972.551 1.687.077 2.192.093 6.465.093s4.778-.016 6.465-.093c1.561-.071 2.407-.332 2.972-.551a4.972 4.972 0 0 0 1.84-1.196 4.962 4.962 0 0 0 1.196-1.84c.22-.564.48-1.411.551-2.972.077-1.687.093-2.193.093-6.465s-.016-4.778-.093-6.465c-.071-1.561-.332-2.407-.551-2.972a4.972 4.972 0 0 0-1.196-1.84 4.964 4.964 0 0 0-1.806-1.184l-.034-.011c-.564-.22-1.411-.48-2.972-.551zm-8.509 17.956a5.338 5.338 0 1 0 3.878-9.946l-.037-.012a5.338 5.338 0 0 0-3.876 9.944l.035.013zm-3.771-10.747a8.224 8.224 0 1 1 11.63 11.63 8.224 8.224 0 1 1-11.63-11.63zm15.863-1.184a1.944 1.944 0 1 0-2.669-2.827l.001-.001A1.944 1.944 0 1 0 26.049 9l-.001.001z"/></symbol><symbol id="icon-twitter" viewBox="0 0 34 32"><path d="M31.245 1.679a3.724 3.724 0 0 0-1.203.291l.024-.009h-.003c-.36.143-2.072.862-4.674 1.954l-9.325 3.928-13.268 5.592.079-.03s-.455.148-.926.472a2.545 2.545 0 0 0-.741.717 2.08 2.08 0 0 0-.349 1.413l-.001-.009c.113.911.704 1.459 1.128 1.76.431.307.839.448.839.448h.01l6.169 2.078c.276.888 1.88 6.157 2.265 7.372.227.724.448 1.179.724 1.524.135.177.29.325.478.445.098.057.202.101.312.135l-.064-.017c.02.005.034.02.049.025.051.013.084.019.148.029.977.296 1.762-.31 1.762-.31l.044-.035 3.641-3.316 6.104 4.682.14.061c1.272.557 2.56.248 3.24-.301.687-.552.953-1.258.953-1.258l.044-.113L33.56 5.044c.135-.596.168-1.155.022-1.696a2.29 2.29 0 0 0-.987-1.324 2.335 2.335 0 0 0-1.353-.34h.006zm-.126 2.589c-.005.081.01.071-.025.224v.013l-4.672 23.912c-.022.034-.056.108-.148.184-.099.077-.177.126-.588-.035l-7.464-5.725-4.51 4.109.948-6.05L26.855 9.532c.504-.467.337-.566.337-.566.034-.573-.76-.168-.76-.168l-15.384 9.531-.003-.025-7.39-2.493a.284.284 0 0 0 .039-.018l-.002.001.04-.019.039-.013 13.273-5.592c3.35-1.411 6.725-2.831 9.32-3.928 1.539-.648 3.082-1.293 4.623-1.933.104-.04.056-.04.13-.04z"/></symbol></defs></svg>