<svg width="112" height="26" fill="none" xmlns="http://www.w3.org/2000/svg"><g filter="url('#filter0_i_13_1656')"><path d="M9.16.793c1.078 0 1.992.38 2.742 1.143a3.76 3.76 0 0 1 1.143 2.76V26h-2.602V4.467c0-.363-.123-.668-.369-.914a1.241 1.241 0 0 0-.914-.37 1.3 1.3 0 0 0-.931.37c-.247.246-.37.55-.37.914V26H5.258V4.467c0-.363-.123-.668-.37-.914a1.241 1.241 0 0 0-.913-.37 1.3 1.3 0 0 0-.932.37c-.246.246-.37.55-.37.914V26h-2.6V4.695a3.76 3.76 0 0 1 1.142-2.76A3.76 3.76 0 0 1 3.975.794c.96 0 1.822.34 2.584 1.02.761-.68 1.628-1.02 2.601-1.02ZM25.99 26V.793h2.601V26h-2.602ZM50.623.793c1.079 0 1.993.38 2.743 1.143a3.76 3.76 0 0 1 1.142 2.76V26h-2.601V4.467c0-.363-.123-.668-.37-.914a1.242 1.242 0 0 0-.914-.37 1.3 1.3 0 0 0-.931.37c-.246.246-.37.55-.37.914V26h-2.6V4.467c0-.363-.124-.668-.37-.914a1.242 1.242 0 0 0-.914-.37c-.363 0-.674.124-.932.37-.246.246-.369.55-.369.914V26h-2.602V4.695a3.76 3.76 0 0 1 1.143-2.76 3.76 3.76 0 0 1 2.76-1.142c.96 0 1.822.34 2.584 1.02.762-.68 1.629-1.02 2.601-1.02ZM67.453 26V.793h2.601V26h-2.601Zm20.731-13.781V.793h2.602V26h-2.602V14.592H85.6V26H83V.793H85.6v11.426h2.584Zm16.707-10.283A3.758 3.758 0 0 1 107.65.793c1.079 0 1.993.38 2.743 1.143a3.762 3.762 0 0 1 1.142 2.76v17.42a3.762 3.762 0 0 1-1.142 2.759c-.75.75-1.664 1.125-2.743 1.125-1.078 0-1.998-.375-2.759-1.125a3.76 3.76 0 0 1-1.143-2.76V4.695a3.76 3.76 0 0 1 1.143-2.76Zm4.043 20.39V4.466c0-.362-.123-.667-.37-.913a1.24 1.24 0 0 0-.914-.37 1.3 1.3 0 0 0-.931.37c-.246.246-.369.55-.369.914v17.86c0 .362.123.673.369.93a1.3 1.3 0 0 0 .931.37c.364 0 .668-.123.914-.37.247-.257.37-.568.37-.93Z" fill="#fff"/></g><defs><filter id="filter0_i_13_1656" x=".072" y=".793" width="111.463" height="29.207" filterUnits="userSpaceOnUse" color-interpolation-filters="sRGB"><feFlood flood-opacity="0" result="BackgroundImageFix"/><feBlend in="SourceGraphic" in2="BackgroundImageFix" result="shape"/><feColorMatrix in="SourceAlpha" values="0 0 0 0 0 0 0 0 0 0 0 0 0 0 0 0 0 0 127 0" result="hardAlpha"/><feOffset dy="4"/><feGaussianBlur stdDeviation="2"/><feComposite in2="hardAlpha" operator="arithmetic" k2="-1" k3="1"/><feColorMatrix values="0 0 0 0 0 0 0 0 0 0 0 0 0 0 0 0 0 0 0.25 0"/><feBlend in2="shape" result="effect1_innerShadow_13_1656"/></filter></defs></svg>